<?xml version="1.0" encoding="UTF-8"?>
<svg id="Layer_2" data-name="Layer 2" xmlns="http://www.w3.org/2000/svg" viewBox="0 0 926.83 198.98">
  <defs>
    <style>
      .cls-1 {
        fill: #fff;
      }
    </style>
  </defs>
  <g id="Layer_1-2" data-name="Layer 1">
    <g>
      <path class="cls-1" d="M374.12,136.85h4.17v17.96h-6.25c-14.43,0-25.12-5.93-32.07-17.8l-15.55-23.41h-12.51v41.21h-19.08V44.17h46.98c10.37,0,19.03,3.34,25.98,10.02,6.95,6.68,10.42,15.05,10.42,25.09,0,8.66-2.75,16.09-8.26,22.29-5.51,6.2-12.53,10.05-21.09,11.55l11.22,15.23c4.17,5.67,9.51,8.5,16.03,8.5ZM311.9,62.13v34.8h27.58c4.92,0,8.98-1.65,12.19-4.97,3.21-3.31,4.81-7.48,4.81-12.51s-1.6-9.17-4.81-12.43c-3.21-3.26-7.27-4.89-12.19-4.89h-27.58Z"/>
      <path class="cls-1" d="M468.72,114.08c0,2.57-.16,4.81-.48,6.73h-67.67c1.28,5.99,4.19,10.77,8.74,14.35,4.54,3.58,10.02,5.37,16.44,5.37,4.6,0,8.84-.96,12.75-2.89,3.9-1.92,6.92-4.49,9.06-7.69h19.88c-3.31,8.12-8.74,14.62-16.28,19.48-7.54,4.86-16.12,7.3-25.74,7.3-12.62,0-23.12-4.09-31.51-12.27-8.39-8.18-12.59-18.36-12.59-30.55s4.17-22.37,12.51-30.55c8.34-8.18,18.71-12.27,31.11-12.27s22.93,4.09,31.27,12.27c8.34,8.18,12.51,18.42,12.51,30.71ZM440.42,92.44c-4.44-3.42-9.6-5.13-15.47-5.13s-11.01,1.71-15.39,5.13c-4.38,3.42-7.32,7.97-8.82,13.63h48.59c-1.5-5.66-4.46-10.21-8.9-13.63Z"/>
      <path class="cls-1" d="M568.94,137.49h1.44v17.32h-5.13c-11.65,0-18.65-4.59-21.01-13.79-7.16,10.48-17,15.71-29.5,15.71-11.54,0-21.14-4.09-28.78-12.27-7.64-8.18-11.47-18.36-11.47-30.55s3.82-22.37,11.47-30.55c7.64-8.18,17.24-12.27,28.78-12.27s21.54,4.87,28.7,14.59v-46.34h17.96v90.6c0,2.35.67,4.2,2,5.53,1.34,1.34,3.18,2,5.53,2ZM518.27,139.42c7.16,0,13.15-2.43,17.96-7.3,4.81-4.86,7.22-10.93,7.22-18.2s-2.41-13.33-7.22-18.2c-4.81-4.86-10.8-7.3-17.96-7.3s-13.31,2.43-18.12,7.3c-4.81,4.86-7.22,10.93-7.22,18.2s2.41,13.34,7.22,18.2c4.81,4.86,10.85,7.3,18.12,7.3Z"/>
      <path class="cls-1" d="M605.18,156.73c-9.09,0-16.62-2.51-22.61-7.54-5.99-5.02-8.98-11.17-8.98-18.44h18.28c0,2.89,1.31,5.35,3.93,7.37,2.62,2.03,5.8,3.05,9.54,3.05,3.31,0,6.2-.83,8.66-2.49,2.46-1.65,3.69-3.77,3.69-6.33,0-5.13-5.61-8.92-16.84-11.38-17.32-3.85-25.98-12.13-25.98-24.86,0-7.48,2.89-13.52,8.66-18.12,5.77-4.59,12.77-6.9,21.01-6.9s15.71,2.41,21.49,7.22c5.77,4.81,8.66,10.69,8.66,17.64h-18.28c0-2.57-1.15-4.76-3.45-6.58-2.3-1.82-5.11-2.72-8.42-2.72-3.1,0-5.77.78-8.02,2.33-2.24,1.55-3.37,3.5-3.37,5.85,0,4.92,5.67,8.66,17,11.23,17.21,3.96,25.82,12.19,25.82,24.69,0,7.91-2.94,14.22-8.82,18.92-5.88,4.71-13.2,7.05-21.97,7.05Z"/>
      <path class="cls-1" d="M736.5,137.49h1.44v17.32h-5.13c-11.65,0-18.65-4.59-21.01-13.79-7.16,10.48-17,15.71-29.5,15.71-11.54,0-21.14-4.09-28.78-12.27-7.64-8.18-11.47-18.36-11.47-30.55s3.82-22.37,11.47-30.55c7.64-8.18,17.24-12.27,28.78-12.27s21.54,4.87,28.7,14.59v-12.67h17.96v56.92c0,2.35.67,4.2,2,5.53,1.34,1.34,3.18,2,5.53,2ZM685.83,139.42c7.16,0,13.15-2.43,17.96-7.3,4.81-4.86,7.22-10.93,7.22-18.2s-2.41-13.33-7.22-18.2c-4.81-4.86-10.8-7.3-17.96-7.3s-13.31,2.43-18.12,7.3c-4.81,4.86-7.22,10.93-7.22,18.2s2.41,13.34,7.22,18.2c4.81,4.86,10.85,7.3,18.12,7.3Z"/>
      <path class="cls-1" d="M810.74,73.03h17.96v72.96c0,12.4-3.82,22.37-11.47,29.91-7.64,7.54-17.77,11.3-30.39,11.3-10.05,0-18.6-2.43-25.66-7.3-7.06-4.86-11.92-11.52-14.59-19.96h18.44c1.92,3.31,4.84,5.93,8.74,7.86,3.9,1.93,8.26,2.89,13.07,2.89,7.27,0,13.07-2.27,17.4-6.82,4.33-4.54,6.49-10.56,6.49-18.04v-5.29c-7.06,9.41-16.62,14.11-28.7,14.11s-21.14-3.98-28.78-11.95c-7.64-7.96-11.47-17.88-11.47-29.74s3.82-21.94,11.47-29.91c7.64-7.96,17.24-11.95,28.78-11.95s21.65,4.71,28.7,14.11v-12.19ZM785.57,138.3c7.16,0,13.15-2.4,17.96-7.22,4.81-4.81,7.22-10.85,7.22-18.12s-2.41-13.34-7.22-18.2c-4.81-4.86-10.8-7.3-17.96-7.3s-13.31,2.43-18.12,7.3c-4.81,4.86-7.22,10.93-7.22,18.2s2.41,13.17,7.22,18.04,10.85,7.3,18.12,7.3Z"/>
      <path class="cls-1" d="M926.83,114.08c0,2.57-.16,4.81-.48,6.73h-67.67c1.28,5.99,4.19,10.77,8.74,14.35,4.54,3.58,10.02,5.37,16.44,5.37,4.6,0,8.84-.96,12.75-2.89,3.9-1.92,6.92-4.49,9.06-7.69h19.88c-3.31,8.12-8.74,14.62-16.28,19.48-7.54,4.86-16.12,7.3-25.74,7.3-12.62,0-23.12-4.09-31.51-12.27-8.39-8.18-12.59-18.36-12.59-30.55s4.17-22.37,12.51-30.55c8.34-8.18,18.71-12.27,31.11-12.27s22.93,4.09,31.27,12.27c8.34,8.18,12.51,18.42,12.51,30.71ZM898.53,92.44c-4.44-3.42-9.6-5.13-15.47-5.13s-11.01,1.71-15.39,5.13c-4.38,3.42-7.32,7.97-8.82,13.63h48.59c-1.5-5.66-4.46-10.21-8.9-13.63Z"/>
      <g>
        <g>
          <path class="cls-1" d="M185.54,98.29v7.17c0,4.47-1.78,8.54-4.73,11.49-2.95,2.95-7.02,4.77-11.49,4.77-9,0-16.24-7.28-16.24-16.26v-7.17c0-8.96,7.24-16.24,16.24-16.24,1.65,0,3.26.26,4.77.7-.57.92-.9,2.02-.9,3.19,0,3.41,2.77,6.18,6.16,6.18,1.63,0,3.1-.62,4.18-1.65,1.3,2.33,2,4.99,2,7.81Z"/>
          <path class="cls-1" d="M100.36,98.29v7.17c0,4.47-1.83,8.54-4.77,11.49-2.9,2.95-6.98,4.77-11.46,4.77-8.98,0-16.26-7.28-16.26-16.26v-7.17c0-8.96,7.28-16.24,16.26-16.24,1.65,0,3.28.26,4.77.7-.55.92-.88,2.02-.88,3.19,0,3.41,2.77,6.18,6.18,6.18,1.58,0,3.06-.62,4.16-1.61,1.28,2.29,2,4.95,2,7.77Z"/>
          <path class="cls-1" d="M223.74,77.45h-26.91c5.1,5.92,8.19,13.62,8.19,22.03,0,43.17-35.14,78.29-78.31,78.29s-78.29-35.12-78.29-78.29c0-8.41,3.08-16.11,8.19-22.03h-26.91c-1.61,7.09-2.46,14.46-2.46,22.03,0,54.86,44.62,99.5,99.48,99.5s99.5-44.65,99.5-99.5c0-7.57-.86-14.94-2.46-22.03Z"/>
        </g>
        <path class="cls-1" d="M210.51,45.9C192.8,18.31,161.84,0,126.7,0S60.62,18.31,42.91,45.9H0c0,5.92,2.4,11.29,6.27,15.16.02.02.04.04.06.06,3.04,3.01,7.26,4.52,11.54,4.52h64.75c18.51.2,33.49,15.31,33.49,33.84h.02c0,.4-.02.79-.02,1.17v21.06l10.58,10.61,10.61-10.61v-21.39c0-18.33,14.21-33.97,32.54-34.66.33-.02.64-.02.95-.02h64.75c4.26,0,8.45-1.5,11.5-4.48.03-.03.07-.07.1-.1,3.87-3.87,6.27-9.24,6.27-15.16h-42.91ZM169.5,44.47c-17.6.53-32.94,9.48-42.6,22.86-10.01-13.84-26.27-22.88-44.65-22.88-4.31,0-8.52.51-12.56,1.45,14.3-15.18,34.57-24.71,57.01-24.71s42.71,9.51,57.01,24.71c-4.55-1.08-9.33-1.58-14.21-1.43Z"/>
      </g>
    </g>
  </g>
</svg>